<?xml version="1.0" standalone="no"?>
<!DOCTYPE svg PUBLIC "-//W3C//DTD SVG 20010904//EN"
 "http://www.w3.org/TR/2001/REC-SVG-20010904/DTD/svg10.dtd">
<svg version="1.0" xmlns="http://www.w3.org/2000/svg"
 width="500.000000pt" height="500.000000pt" viewBox="0 0 500.000000 500.000000"
 preserveAspectRatio="xMidYMid meet">

<g transform="translate(0.000000,500.000000) scale(0.100000,-0.100000)"
fill="#000000" stroke="none">
<path d="M1940 3555 c-86 -19 -212 -82 -279 -140 -169 -145 -252 -324 -254
-550 -1 -132 16 -205 75 -325 79 -161 255 -306 419 -345 205 -48 462 9 600
133 59 53 163 206 215 317 40 86 95 198 100 203 1 2 22 -9 46 -25 24 -17 66
-43 94 -58 49 -27 86 -65 64 -65 -27 0 -4 -20 53 -46 116 -53 256 -41 349 29
56 43 106 113 91 128 -8 8 -1 32 25 87 100 215 16 473 -185 568 -64 30 -191
43 -253 27 -39 -10 -73 -6 -65 8 9 13 3 12 -67 -15 -119 -44 -265 -144 -254
-173 9 -23 -10 -12 -107 61 -97 73 -239 146 -332 171 -87 23 -255 28 -335 10z
m210 -76 c70 -11 142 -30 137 -36 -2 -2 -33 4 -68 14 -100 26 -254 22 -351
-10 -43 -14 -100 -39 -127 -56 -47 -30 -127 -108 -164 -161 -17 -24 -17 -23 0
9 93 175 338 278 573 240z m984 -24 c-67 -14 -130 -43 -183 -83 -19 -14 -31
-20 -27 -13 26 41 176 110 241 110 18 -1 6 -6 -31 -14z m-804 -25 c8 -5 11
-10 5 -10 -5 0 -17 5 -25 10 -8 5 -10 10 -5 10 6 0 17 -5 25 -10z m45 -20 c3
-6 -1 -7 -9 -4 -18 7 -21 14 -7 14 6 0 13 -4 16 -10z m903 -184 c39 -44 56
-98 48 -148 -13 -83 -59 -118 -158 -119 -51 -1 -57 -2 -35 -9 30 -9 71 -13
126 -11 26 1 44 11 78 46 44 44 45 45 41 102 -2 32 -7 67 -11 78 -4 11 2 2 13
-20 27 -56 25 -93 -9 -147 -41 -64 -79 -82 -155 -75 -71 7 -128 25 -120 38 3
5 -2 6 -10 3 -8 -3 -29 4 -46 16 -16 12 -30 18 -30 14 0 -4 -7 1 -15 12 -8 10
-15 15 -15 11 0 -5 -12 5 -26 23 l-26 31 27 39 c65 94 154 149 241 150 47 0
55 -4 82 -34z m-919 -26 c99 -50 234 -170 191 -170 -5 0 -24 -28 -41 -62 -75
-150 -167 -273 -241 -322 -30 -21 -44 -36 -36 -39 10 -3 10 -9 2 -23 -37 -62
-147 -81 -257 -45 -147 49 -240 153 -267 298 -20 116 24 273 78 273 10 0 12
-7 8 -27 l-7 -28 16 22 c25 35 95 79 155 97 68 20 198 21 273 1 73 -19 83 -19
67 0 -13 16 -7 45 10 45 6 0 28 -9 49 -20z m182 -479 c-58 -81 -189 -176 -271
-195 -14 -4 4 7 40 24 70 33 141 88 204 157 46 50 56 55 27 14z"/>
</g>
</svg>
